<svg width="99" height="37" viewBox="0 0 99 37" fill="none" xmlns="http://www.w3.org/2000/svg">
<path d="M0.227273 36V1.09091H12.0227C14.7614 1.09091 17 1.58523 18.7386 2.57386C20.4886 3.55114 21.7841 4.875 22.625 6.54545C23.4659 8.21591 23.8864 10.0795 23.8864 12.1364C23.8864 14.1932 23.4659 16.0625 22.625 17.7443C21.7955 19.4261 20.5114 20.767 18.7727 21.767C17.0341 22.7557 14.8068 23.25 12.0909 23.25H3.63636V19.5H11.9545C13.8295 19.5 15.3352 19.1761 16.4716 18.5284C17.608 17.8807 18.4318 17.0057 18.9432 15.9034C19.4659 14.7898 19.7273 13.5341 19.7273 12.1364C19.7273 10.7386 19.4659 9.48864 18.9432 8.38636C18.4318 7.28409 17.6023 6.42045 16.4545 5.79545C15.3068 5.15909 13.7841 4.84091 11.8864 4.84091H4.45455V36H0.227273ZM30.1506 36V9.81818H34.1733V36H30.1506ZM32.196 5.45455C31.4119 5.45455 30.7358 5.1875 30.1676 4.65341C29.6108 4.11932 29.3324 3.47727 29.3324 2.72727C29.3324 1.97727 29.6108 1.33523 30.1676 0.801135C30.7358 0.267045 31.4119 0 32.196 0C32.9801 0 33.6506 0.267045 34.2074 0.801135C34.7756 1.33523 35.0597 1.97727 35.0597 2.72727C35.0597 3.47727 34.7756 4.11932 34.2074 4.65341C33.6506 5.1875 32.9801 5.45455 32.196 5.45455ZM70.1776 12H65.9503C65.7003 10.7841 65.2628 9.71591 64.6378 8.79545C64.0241 7.875 63.2741 7.10227 62.3878 6.47727C61.5128 5.84091 60.5412 5.36364 59.473 5.04545C58.4048 4.72727 57.2912 4.56818 56.1321 4.56818C54.0185 4.56818 52.1037 5.10227 50.3878 6.17045C48.6832 7.23864 47.3253 8.8125 46.3139 10.892C45.3139 12.9716 44.8139 15.5227 44.8139 18.5455C44.8139 21.5682 45.3139 24.1193 46.3139 26.1989C47.3253 28.2784 48.6832 29.8523 50.3878 30.9205C52.1037 31.9886 54.0185 32.5227 56.1321 32.5227C57.2912 32.5227 58.4048 32.3636 59.473 32.0455C60.5412 31.7273 61.5128 31.2557 62.3878 30.6307C63.2741 29.9943 64.0241 29.2159 64.6378 28.2955C65.2628 27.3636 65.7003 26.2955 65.9503 25.0909H70.1776C69.8594 26.875 69.2798 28.4716 68.4389 29.8807C67.598 31.2898 66.5526 32.4886 65.3026 33.4773C64.0526 34.4545 62.6491 35.1989 61.0923 35.7102C59.5469 36.2216 57.8935 36.4773 56.1321 36.4773C53.1548 36.4773 50.5071 35.75 48.1889 34.2955C45.8707 32.8409 44.0469 30.7727 42.7173 28.0909C41.3878 25.4091 40.723 22.2273 40.723 18.5455C40.723 14.8636 41.3878 11.6818 42.7173 9C44.0469 6.31818 45.8707 4.25 48.1889 2.79545C50.5071 1.34091 53.1548 0.613635 56.1321 0.613635C57.8935 0.613635 59.5469 0.869317 61.0923 1.38068C62.6491 1.89205 64.0526 2.64205 65.3026 3.63068C66.5526 4.60795 67.598 5.80114 68.4389 7.21023C69.2798 8.60795 69.8594 10.2045 70.1776 12ZM87.0994 36.5455C84.7358 36.5455 82.6619 35.983 80.8778 34.858C79.1051 33.733 77.7188 32.1591 76.7188 30.1364C75.7301 28.1136 75.2358 25.75 75.2358 23.0455C75.2358 20.3182 75.7301 17.9375 76.7188 15.9034C77.7188 13.8693 79.1051 12.2898 80.8778 11.1648C82.6619 10.0398 84.7358 9.47727 87.0994 9.47727C89.4631 9.47727 91.5313 10.0398 93.304 11.1648C95.0881 12.2898 96.4744 13.8693 97.4631 15.9034C98.4631 17.9375 98.9631 20.3182 98.9631 23.0455C98.9631 25.75 98.4631 28.1136 97.4631 30.1364C96.4744 32.1591 95.0881 33.733 93.304 34.858C91.5313 35.983 89.4631 36.5455 87.0994 36.5455ZM87.0994 32.9318C88.8949 32.9318 90.3722 32.4716 91.5312 31.5511C92.6903 30.6307 93.5483 29.4205 94.1051 27.9205C94.6619 26.4205 94.9403 24.7955 94.9403 23.0455C94.9403 21.2955 94.6619 19.6648 94.1051 18.1534C93.5483 16.642 92.6903 15.4205 91.5312 14.4886C90.3722 13.5568 88.8949 13.0909 87.0994 13.0909C85.304 13.0909 83.8267 13.5568 82.6676 14.4886C81.5085 15.4205 80.6506 16.642 80.0938 18.1534C79.5369 19.6648 79.2585 21.2955 79.2585 23.0455C79.2585 24.7955 79.5369 26.4205 80.0938 27.9205C80.6506 29.4205 81.5085 30.6307 82.6676 31.5511C83.8267 32.4716 85.304 32.9318 87.0994 32.9318Z" fill="white"/>
</svg>
